<svg width="428" height="140" viewBox="0 0 428 140" fill="none" xmlns="http://www.w3.org/2000/svg">
<rect width="428" height="140" rx="10" fill="#6D8C54"/>
<g clip-path="url(#clip0_3_397)">
<path d="M59.6859 50.6306C59.7649 49.8229 60.2457 49.1275 60.9709 48.7707C72.1603 43.2739 78.979 53.3484 79.7868 54.6298L80.8263 55.6567V51.4115C78.5053 51.37 75.7359 49.3066 72.9018 45.4132C70.1121 41.581 71.2696 35.651 72.672 33.5466C73.3309 32.5587 74.289 32.0238 75.4429 32C77.939 31.9737 80.8668 34.3675 82.629 36.7882C83.9186 38.5601 84.863 41.3487 85.0937 44.0659C85.1727 44.9957 85.196 46.306 84.9242 47.5682C85.2344 46.7275 85.6621 45.7978 86.2117 44.777C89.719 38.264 93.4292 36.8236 95.3286 36.5448C96.7376 36.3363 98.0125 36.648 98.7388 37.3738C100.474 39.1087 98.4806 42.5932 98.222 43.0259C98.0565 43.3149 95.439 47.8126 91.4823 51.1099C90.1219 52.244 88.3723 53.0786 86.9208 53.0786C86.5706 53.0786 86.2385 53.028 85.9329 52.9232L82.5956 58.1847V63.0255L84.4576 59.3011C84.5097 59.1974 84.5801 59.1093 84.6615 59.0364C87.107 55.0418 91.0668 52.1747 92.4788 51.2339C94.1859 50.0961 96.1926 49.4266 98.2807 49.298C101.051 49.1239 103.726 50.1872 105.628 52.2041C106.008 52.6064 106.202 53.1333 106.174 53.6874C106.147 54.2361 105.894 54.7568 105.479 55.1162C100.514 59.4201 96.6668 60.3103 92.9459 61.1717C91.7581 61.447 90.6366 61.7066 89.4715 62.0751C85.1727 63.435 84.3913 63.7477 84.2774 63.7973C84.2405 63.8166 84.202 63.8328 84.163 63.8464L82.6999 66.7727H92.3244C92.5835 66.7727 92.83 66.8866 92.998 67.0835C93.1661 67.2808 93.2395 67.542 93.198 67.7981L90.6265 83.719L90.0551 87.2567C89.9862 87.6853 89.6158 88.0001 89.182 88.0001H74.0142C73.5799 88.0001 73.21 87.6853 73.1406 87.2567L72.5692 83.719L69.9977 67.7981C69.9562 67.542 70.0301 67.2808 70.1977 67.0835C70.3657 66.8866 70.6121 66.7727 70.8713 66.7727H80.8263V58.1427L78.9041 56.2443C76.8969 57.0378 74.9388 57.3602 73.085 57.3602C67.4186 57.3602 62.7291 54.3666 60.605 52.7441C59.9491 52.2425 59.6054 51.4525 59.6859 50.6306ZM83.3315 44.2152C83.1296 41.8386 82.2925 39.3319 81.1988 37.8293C79.4785 35.4658 77.1019 33.7683 75.5239 33.7683C75.5092 33.7683 75.494 33.7683 75.4793 33.7688C74.9059 33.7809 74.4813 34.0218 74.1442 34.5285C72.9681 36.2927 72.1461 41.3699 74.3325 44.3726C75.5062 45.9851 79.5332 51.1033 82.0754 49.253C83.0678 48.5298 83.538 46.6471 83.3315 44.2152ZM86.3347 51.16C86.8889 51.6124 88.7245 51.1068 90.3501 49.7515C94.1013 46.6258 96.6658 42.1848 96.6916 42.1402C96.6941 42.1357 96.6976 42.1301 96.7007 42.125C97.3728 41 98.0206 39.1568 97.4882 38.6248C97.3308 38.4674 96.9011 38.2498 96.1829 38.2498C96.0023 38.2498 95.8029 38.2635 95.5857 38.2954C94.321 38.4811 91.0273 39.5662 87.7695 45.6161C85.7866 49.298 85.9349 50.8335 86.3347 51.16ZM84.4753 51.9201C84.5138 51.8594 84.5598 51.8068 84.6094 51.7592C84.2561 51.0355 84.2329 50.0546 84.535 48.8258C84.2253 49.5531 83.7718 50.206 83.1159 50.6832C82.9469 50.8067 82.7733 50.914 82.5956 51.0056V54.8834L84.4753 51.9201ZM85.3215 61.5558C86.1333 61.285 87.2877 60.9115 88.9381 60.3887C90.1689 59.999 91.3785 59.7197 92.5476 59.4489C96.2194 58.5987 99.6877 57.796 104.32 53.7801C104.391 53.7183 104.406 53.6404 104.408 53.5999C104.41 53.5513 104.401 53.4805 104.342 53.4187C104.341 53.4187 104.341 53.4182 104.341 53.4182C102.908 51.8984 100.93 51.0502 98.8567 51.0502C98.7013 51.0502 98.5454 51.0547 98.3895 51.0643C96.6121 51.1736 94.9076 51.7415 93.4596 52.7061C92.0172 53.6672 87.7128 56.7848 85.5978 60.9773L85.4956 61.1813C85.4359 61.3053 85.3772 61.4298 85.3215 61.5558ZM74.7672 86.2313H88.429L88.7144 84.4625H74.4813L74.7672 86.2313ZM74.1959 82.6937H89.0003L91.2859 68.542H71.9098L74.1959 82.6937ZM61.6789 51.3381V51.3386C64.7783 53.7062 70.8384 57.1674 77.6146 54.8348C77.5817 54.7376 77.5645 54.6364 77.566 54.5347C76.8342 53.5746 75.5957 52.1651 73.9059 51.0016C70.1845 48.4402 66.0957 48.2241 61.7513 50.3583C61.5124 50.4757 61.4578 50.6873 61.4461 50.8037C61.4365 50.9034 61.4396 51.1554 61.6789 51.3381Z" fill="#F7C35F"/>
</g>
<path d="M76.6648 91.6169H66.7948H65.561C65.4711 91.6169 65.3985 91.5443 65.3985 91.4544V89.5569C65.3985 89.467 65.4711 89.3944 65.561 89.3944H74.9472C75.0372 89.3944 75.1097 89.467 75.1097 89.5569V90.3794C75.1097 90.5566 75.2538 90.7007 75.431 90.7007C75.6082 90.7007 75.7523 90.5566 75.7523 90.3794V89.5569C75.7523 89.1126 75.3915 88.7519 74.9472 88.7519H70.4345C69.556 81.4779 66.5864 74.7198 61.8267 69.156C61.991 69.0229 62.0847 68.8274 62.0847 68.6153V67.5817C62.0847 67.3072 61.924 67.063 61.6817 66.951L64.9405 63.3994C65.4784 62.8128 65.6436 62.0133 65.382 61.2615C65.1195 60.5096 64.4934 59.9855 63.7076 59.8606L62.271 59.6321L62.5033 59.1253C62.6914 58.7141 62.6869 58.2459 62.4904 57.8383C62.294 57.4308 61.9304 57.1361 61.4917 57.0269L60.6857 56.8277C57.0257 55.9225 53.1583 55.9253 49.5002 56.8368L48.7429 57.0259C48.305 57.1352 47.9415 57.4308 47.746 57.8374C47.5505 58.2441 47.5459 58.7132 47.7341 59.1235L47.9672 59.633L46.5297 59.8616C45.743 59.9864 45.1169 60.5106 44.8553 61.2624C44.5928 62.0142 44.758 62.8137 45.2969 63.4003L48.5556 66.9519C48.3133 67.0649 48.1527 67.3081 48.1527 67.5826V68.6162C48.1527 68.8283 48.2472 69.0247 48.4115 69.1578C42.6843 75.8553 39.5338 84.3686 39.5338 93.1939V96.4059C39.5338 98.8578 41.5286 100.853 43.9814 100.853H63.435C63.6122 100.853 63.7563 100.709 63.7563 100.532C63.7563 100.355 63.6122 100.211 63.435 100.211H43.9777C41.8802 100.211 40.1728 98.5044 40.1728 96.4059V93.1939C40.1728 84.3823 43.3673 75.8865 49.1734 69.2524C53.0656 68.283 57.168 68.283 61.0602 69.2524C65.8832 74.7602 68.8951 81.4935 69.7873 88.7528H65.5619C65.1176 88.7528 64.7569 89.1135 64.7569 89.5578V91.4553C64.7569 91.8996 65.1176 92.2603 65.5619 92.2603H66.4744V94.4827H65.5619C65.1176 94.4827 64.7569 94.8435 64.7569 95.2878V97.6681V100.048C64.7569 100.493 65.1176 100.853 65.5619 100.853H74.9482C75.3925 100.853 75.7532 100.493 75.7532 100.048V97.6672V95.1244H76.6657C77.11 95.1244 77.4707 94.7636 77.4707 94.3193V92.4228C77.4698 91.9776 77.1081 91.6169 76.6648 91.6169ZM59.2876 67.085C59.9981 67.2035 60.704 67.3513 61.4026 67.5303C61.4265 67.5367 61.443 67.5578 61.443 67.5826V68.6162C61.443 68.6383 61.432 68.6511 61.4219 68.6584C61.4127 68.6658 61.3962 68.6731 61.376 68.6676C60.9216 68.551 60.4644 68.4482 60.0055 68.3583C59.9247 67.8525 59.664 67.4045 59.2876 67.085ZM45.4593 61.4726C45.642 60.9475 46.079 60.5822 46.6279 60.495L48.2426 60.2379L50.0877 64.266C50.1612 64.4275 50.3521 64.4982 50.5137 64.4248C50.6752 64.3504 50.7459 64.1604 50.6716 63.9988L48.3161 58.8545C48.2077 58.6186 48.2105 58.3487 48.3234 58.1147C48.4363 57.8806 48.6447 57.7108 48.8971 57.6474L49.6544 57.4583C53.2107 56.5725 56.9716 56.5688 60.5296 57.4491L61.3356 57.6483C61.588 57.7108 61.7973 57.8806 61.9102 58.1147C62.0232 58.3487 62.0259 58.6186 61.9176 58.8545L58.936 65.3648C58.8626 65.5263 58.9333 65.7164 59.0939 65.7907C59.1371 65.8109 59.183 65.8201 59.2279 65.8201C59.35 65.8201 59.4666 65.7503 59.5199 65.6328L61.991 60.2361L63.6048 60.4931C64.1538 60.5803 64.5907 60.9457 64.7734 61.4708C64.9561 61.9958 64.8413 62.553 64.4659 62.9634L60.9785 66.7647C57.1295 65.8742 53.1014 65.8742 49.2524 66.7647L45.765 62.9634C45.3914 62.5549 45.2757 61.9967 45.4593 61.4726ZM75.1097 100.047C75.1097 100.137 75.0372 100.21 74.9472 100.21H65.5619C65.472 100.21 65.3995 100.137 65.3995 100.047V97.9885H75.1097V100.047ZM75.1097 97.3459H65.3995V95.2869C65.3995 95.1969 65.472 95.1244 65.5619 95.1244H66.7957H75.1106V97.3459H75.1097ZM76.8272 94.3184C76.8272 94.4084 76.7547 94.4809 76.6648 94.4809H75.431H67.116V92.2585H76.6638C76.7538 92.2585 76.8263 92.331 76.8263 92.421V94.3184H76.8272Z" fill="#F7C35F" stroke="#F7C35F"/>
<path d="M55.1173 74.7694C49.7894 74.7694 45.4704 79.0885 45.4704 84.4163C45.4704 89.7442 49.7894 94.0633 55.1173 94.0633C60.4452 94.0633 64.7642 89.7442 64.7642 84.4163C64.7642 79.0885 60.4452 74.7694 55.1173 74.7694ZM55.9012 89.7057V91.0377C55.9012 91.1019 55.8489 91.1542 55.7846 91.1542H54.449C54.3847 91.1542 54.3324 91.1019 54.3324 91.0377V89.7149C52.8233 89.6625 51.6042 88.4508 51.5427 86.9444C51.54 86.8793 51.5941 86.8251 51.6593 86.8251H52.9968C53.0564 86.8251 53.1079 86.8701 53.1124 86.9297C53.1657 87.6109 53.7376 88.1497 54.4325 88.1497H55.6497C56.4869 88.1497 57.1634 87.4475 57.1221 86.6011C57.0827 85.8098 56.3997 85.2012 55.6075 85.2012H54.6464C52.972 85.2012 51.5629 83.8757 51.54 82.2013C51.5179 80.5884 52.7572 79.2564 54.3315 79.127V77.795C54.3315 77.7308 54.3838 77.6785 54.4481 77.6785H55.7837C55.848 77.6785 55.9003 77.7308 55.9003 77.795V79.1187C57.4095 79.1711 58.6285 80.3828 58.69 81.8892C58.6928 81.9544 58.6386 82.0085 58.5734 82.0085H57.236C57.1763 82.0085 57.1249 81.9635 57.1203 81.9039C57.0671 81.2227 56.4952 80.6848 55.8003 80.6848H54.583C53.7458 80.6848 53.0693 81.387 53.1106 82.2334C53.1501 83.0247 53.833 83.6333 54.6253 83.6333H55.5855C57.2598 83.6333 58.6689 84.9589 58.6919 86.6332C58.7148 88.2443 57.4755 89.5772 55.9012 89.7057Z" fill="#F7C35F"/>
<path d="M41.8912 92.5119V95.2906C41.8912 97.1338 43.3856 98.6283 45.2289 98.6283H51.5602C53.1363 98.6283 53.6853 96.5344 52.312 95.7606L44.176 91.1771C43.1543 90.6007 41.8912 91.3396 41.8912 92.5119Z" fill="#F7C35F"/>
<line x1="131.5" y1="32" x2="131.5" y2="109" stroke="white" stroke-opacity="0.2"/>
<path d="M174.465 54.7852C174.491 54.8503 174.53 54.9219 174.582 55C174.634 55.0781 174.699 55.1562 174.777 55.2344C175.454 56.0156 175.962 56.7839 176.301 57.5391C176.639 58.2812 176.809 58.9844 176.809 59.6484C176.809 60.1562 176.737 60.6315 176.594 61.0742C176.464 61.5039 176.249 61.9076 175.949 62.2852C175.767 62.5326 175.493 62.8125 175.129 63.125C174.777 63.4375 174.361 63.7891 173.879 64.1797C173.228 64.7135 172.603 65.1042 172.004 65.3516C171.405 65.599 170.839 65.7227 170.305 65.7227C169.836 65.6836 169.367 65.651 168.898 65.625C168.299 65.5599 167.798 65.4818 167.395 65.3906C167.004 65.2995 166.704 65.1758 166.496 65.0195C166.288 64.8763 166.086 64.6289 165.891 64.2773C165.695 63.9258 165.513 63.4766 165.344 62.9297C165.344 63.0078 165.337 62.9232 165.324 62.6758C165.324 62.4154 165.324 62.0052 165.324 61.4453C165.324 60.4036 166.815 58.0143 169.797 54.2773C169.406 53.8607 169.016 53.4896 168.625 53.1641C168.143 52.7604 167.727 52.3893 167.375 52.0508C167.036 51.6992 166.737 51.3802 166.477 51.0938C166.086 50.651 165.793 50.2148 165.598 49.7852C165.415 49.3555 165.324 48.9518 165.324 48.5742C165.324 48.1706 165.389 47.7148 165.52 47.207C165.65 46.6992 165.845 46.1523 166.105 45.5664C166.418 44.8763 166.73 44.362 167.043 44.0234C167.368 43.6719 167.688 43.4961 168 43.4961C168.13 43.4961 168.247 43.5352 168.352 43.6133C168.456 43.6784 168.547 43.7891 168.625 43.9453L168.098 45.5273C168.137 46.1654 168.202 46.7253 168.293 47.207C168.397 47.6758 168.527 48.0794 168.684 48.418C168.788 48.6133 168.977 48.9258 169.25 49.3555C169.536 49.7721 169.908 50.2865 170.363 50.8984C170.493 51.0938 170.663 51.2891 170.871 51.4844C171.092 51.6797 171.333 51.875 171.594 52.0703L171.75 51.9922C171.867 51.9401 171.984 51.862 172.102 51.7578C172.219 51.6536 172.349 51.5365 172.492 51.4062C172.583 51.263 172.694 51.0742 172.824 50.8398C172.954 50.6055 173.111 50.3255 173.293 50C174.686 48.1641 175.734 46.5625 176.438 45.1953C177.154 43.8281 177.512 42.7279 177.512 41.8945C177.512 41.4258 177.303 41.0677 176.887 40.8203C176.47 40.5729 175.852 40.4492 175.031 40.4492C174.302 40.4492 173.625 40.5078 173 40.625C172.375 40.7292 171.783 40.8789 171.223 41.0742C170.611 41.3607 169.979 41.6406 169.328 41.9141C168.677 42.1875 168.02 42.4609 167.355 42.7344C167.069 42.7344 166.841 42.6693 166.672 42.5391C166.516 42.3958 166.438 42.1745 166.438 41.875C166.438 41.7448 166.496 41.569 166.613 41.3477C166.743 41.1133 166.939 40.8464 167.199 40.5469C167.603 40.013 167.98 39.5573 168.332 39.1797C168.697 38.8021 168.996 38.5156 169.23 38.3203C169.66 37.9688 170.109 37.6888 170.578 37.4805C171.047 37.2721 171.522 37.1419 172.004 37.0898C172.056 37.0638 172.128 37.0508 172.219 37.0508C172.323 37.0378 172.427 37.0182 172.531 36.9922L172.844 36.6992C172.896 36.6732 172.974 36.6536 173.078 36.6406C173.143 36.6406 173.221 36.6536 173.312 36.6797C173.417 36.7057 173.54 36.7448 173.684 36.7969C173.801 36.7839 173.938 36.7513 174.094 36.6992C174.263 36.6341 174.452 36.5755 174.66 36.5234C175.52 36.7708 176.249 37.0443 176.848 37.3438C177.447 37.6432 177.876 37.9753 178.137 38.3398C178.527 38.8477 178.84 39.2708 179.074 39.6094C179.322 39.9349 179.504 40.1823 179.621 40.3516C179.842 40.7292 179.999 41.1198 180.09 41.5234C180.181 41.9141 180.227 42.2982 180.227 42.6758C180.227 42.793 180.227 42.9036 180.227 43.0078C180.227 43.099 180.22 43.2031 180.207 43.3203C180.129 44.0234 180.038 44.7396 179.934 45.4688C179.829 46.1979 179.66 46.9271 179.426 47.6562C179.27 48.0339 178.964 48.5612 178.508 49.2383C178.065 49.9154 177.453 50.7422 176.672 51.7188C175.943 52.6302 175.396 53.3464 175.031 53.8672C174.68 54.388 174.491 54.694 174.465 54.7852ZM168.957 63.1836C169.204 63.2617 169.426 63.3203 169.621 63.3594C169.829 63.3854 170.025 63.3984 170.207 63.3984C170.311 63.3984 170.461 63.3789 170.656 63.3398C170.852 63.2878 171.099 63.2161 171.398 63.125C172.284 62.8646 172.948 62.4544 173.391 61.8945C173.833 61.3346 174.055 60.625 174.055 59.7656C174.055 59.3229 173.853 58.7891 173.449 58.1641C173.046 57.5391 172.648 57.1354 172.258 56.9531C172.141 56.9531 171.965 57.0768 171.73 57.3242C171.509 57.5586 171.216 57.9232 170.852 58.418C170.396 59.043 169.921 59.681 169.426 60.332C169.074 60.6966 168.82 61.0482 168.664 61.3867C168.508 61.7253 168.43 62.0443 168.43 62.3438C168.43 62.4609 168.469 62.5911 168.547 62.7344C168.638 62.8646 168.775 63.0143 168.957 63.1836ZM194.113 37.4414C194.243 37.4023 194.374 37.3698 194.504 37.3438C194.634 37.3047 194.764 37.2656 194.895 37.2266C195.389 37.4089 195.76 37.5716 196.008 37.7148C196.255 37.8581 196.379 37.9818 196.379 38.0859C196.171 38.3724 195.962 38.6133 195.754 38.8086C195.246 39.3034 194.751 39.7917 194.27 40.2734C193.801 40.7422 193.339 41.2109 192.883 41.6797C192.688 41.9401 192.427 42.2591 192.102 42.6367C191.776 43.0143 191.379 43.4505 190.91 43.9453L190.656 44.6094C190.591 44.6875 190.493 44.7721 190.363 44.8633C190.246 44.9414 190.103 45.0456 189.934 45.1758C189.79 45.332 189.634 45.5143 189.465 45.7227C189.309 45.918 189.139 46.1263 188.957 46.3477C188.527 46.8815 188.065 47.526 187.57 48.2812C187.076 49.0365 186.587 49.9284 186.105 50.957L186.633 50.7812C186.854 50.8984 187.082 51.0547 187.316 51.25C187.551 51.4453 187.792 51.6732 188.039 51.9336C188.273 52.0898 188.573 52.2786 188.938 52.5C189.302 52.7214 189.699 52.9883 190.129 53.3008C190.676 53.8216 191.132 54.2839 191.496 54.6875C191.874 55.0911 192.167 55.4036 192.375 55.625C192.727 56.0547 193.059 56.4909 193.371 56.9336C193.697 57.3633 193.99 57.8255 194.25 58.3203C194.589 58.9193 194.836 59.5573 194.992 60.2344C195.148 60.9115 195.227 61.6341 195.227 62.4023C195.227 63.8737 194.745 64.974 193.781 65.7031C192.818 66.4323 191.385 66.7969 189.484 66.7969C188.456 66.7969 187.499 66.5755 186.613 66.1328C185.728 65.6901 184.934 65.026 184.23 64.1406L182.531 62.0312C182.453 61.862 182.388 61.6927 182.336 61.5234C181.971 60.7422 181.607 59.9089 181.242 59.0234C181.125 58.6198 181.034 58.1901 180.969 57.7344C180.904 57.2656 180.871 56.7513 180.871 56.1914C180.871 54.1992 181.112 52.4479 181.594 50.9375C182.089 49.4271 182.818 48.138 183.781 47.0703C183.872 46.9792 183.99 46.862 184.133 46.7188C184.289 46.5625 184.465 46.3802 184.66 46.1719C184.751 46.0677 184.842 45.9245 184.934 45.7422C185.038 45.5469 185.174 45.3255 185.344 45.0781C186.034 44.1927 186.796 43.3398 187.629 42.5195C188.462 41.6992 189.361 40.9245 190.324 40.1953C190.832 39.8047 191.353 39.4076 191.887 39.0039C192.434 38.6003 193.007 38.1966 193.605 37.793C193.71 37.7669 193.801 37.7279 193.879 37.6758C193.97 37.6107 194.048 37.5326 194.113 37.4414ZM185.852 51.4258C185.708 51.4258 185.52 51.6536 185.285 52.1094C185.064 52.5521 184.803 53.2422 184.504 54.1797C184.204 55.0651 183.99 55.8203 183.859 56.4453C183.729 57.0703 183.664 57.5716 183.664 57.9492C183.664 58.6003 183.742 59.1927 183.898 59.7266C184.068 60.2604 184.309 60.7096 184.621 61.0742C184.868 61.3607 185.22 61.6667 185.676 61.9922C186.132 62.3047 186.691 62.6172 187.355 62.9297C187.772 63.112 188.169 63.2617 188.547 63.3789C188.938 63.4961 189.289 63.5547 189.602 63.5547C190.279 63.5547 190.786 63.418 191.125 63.1445C191.477 62.8711 191.652 62.474 191.652 61.9531C191.652 61.6536 191.6 61.3411 191.496 61.0156C191.405 60.6901 191.268 60.3516 191.086 60C190.956 59.6094 190.728 59.1081 190.402 58.4961C190.09 57.8841 189.699 57.168 189.23 56.3477C188.215 54.9674 187.18 53.5612 186.125 52.1289L185.988 51.543L185.852 51.4258ZM197.59 70.3906C197.447 70.3776 197.323 70.3451 197.219 70.293C197.128 70.2539 197.082 70.1888 197.082 70.0977C197.082 69.8633 197.375 68.9323 197.961 67.3047C198.547 65.6901 198.84 64.4401 198.84 63.5547C198.84 63.3984 198.814 63.1966 198.762 62.9492C198.71 62.6888 198.684 62.487 198.684 62.3438C198.684 61.7318 198.794 61.2695 199.016 60.957C199.237 60.6315 199.562 60.4688 199.992 60.4688C200.422 60.4688 200.786 60.5469 201.086 60.7031C201.385 60.8464 201.626 61.0872 201.809 61.4258C201.887 61.556 201.978 61.7969 202.082 62.1484C202.186 62.487 202.303 62.9362 202.434 63.4961C202.434 63.6393 202.395 63.8086 202.316 64.0039C202.238 64.1862 202.134 64.3815 202.004 64.5898C201.874 64.8503 201.763 65.0586 201.672 65.2148C201.594 65.3841 201.542 65.5208 201.516 65.625C201.047 67.2396 200.559 68.444 200.051 69.2383C199.543 70.0456 199.042 70.4427 198.547 70.4297L197.59 70.3906ZM209.699 62.5586C209.751 62.194 209.829 61.7773 209.934 61.3086C210.038 60.8268 210.188 60.293 210.383 59.707C210.695 58.7956 211.001 57.8581 211.301 56.8945C211.314 56.7773 211.333 56.6341 211.359 56.4648C211.398 56.2826 211.431 56.0677 211.457 55.8203C211.613 55.4557 211.789 54.974 211.984 54.375C212.18 53.763 212.382 53.0534 212.59 52.2461L212.883 50.7422C212.948 50.5469 213.046 50.2409 213.176 49.8242C213.319 49.4076 213.514 48.8802 213.762 48.2422C213.97 47.7214 214.12 47.2461 214.211 46.8164C214.315 46.3867 214.367 46.0156 214.367 45.7031C214.367 45.4427 214.328 45.2344 214.25 45.0781C214.185 44.9089 214.087 44.7917 213.957 44.7266C213.801 44.6354 213.612 44.5312 213.391 44.4141C213.169 44.2839 212.909 44.1536 212.609 44.0234C212.492 43.9974 212.355 43.9714 212.199 43.9453C212.043 43.9193 211.861 43.8867 211.652 43.8477C211.066 43.6784 210.428 43.5156 209.738 43.3594C209.048 43.1901 208.299 43.0208 207.492 42.8516C207.219 42.8125 206.88 42.7734 206.477 42.7344C206.073 42.6823 205.617 42.6107 205.109 42.5195C204.81 42.4544 204.589 42.3503 204.445 42.207C204.289 42.0508 204.211 41.8555 204.211 41.6211C203.885 40.931 203.645 40.3451 203.488 39.8633C203.319 39.3685 203.234 38.9714 203.234 38.6719C203.234 38.3073 203.299 38.0339 203.43 37.8516C203.56 37.6562 203.749 37.5586 203.996 37.5586C204.139 37.6107 204.315 37.6562 204.523 37.6953C204.862 37.7865 205.253 37.8841 205.695 37.9883C206.151 38.0794 206.659 38.1771 207.219 38.2812C207.388 38.3073 207.59 38.3464 207.824 38.3984C208.072 38.4505 208.332 38.5352 208.605 38.6523C208.944 38.7826 209.23 38.8802 209.465 38.9453C209.699 39.0104 209.882 39.0625 210.012 39.1016C210.22 39.1406 210.435 39.2057 210.656 39.2969C210.891 39.388 211.151 39.5052 211.438 39.6484C211.789 39.8177 212.082 39.9544 212.316 40.0586C212.551 40.1628 212.727 40.2344 212.844 40.2734C213.299 40.4427 213.872 40.7682 214.562 41.25C215.253 41.7318 215.643 41.9922 215.734 42.0312C215.93 42.2396 216.125 42.4479 216.32 42.6562C216.516 42.8516 216.704 43.0664 216.887 43.3008C217.056 43.4961 217.199 43.724 217.316 43.9844C217.447 44.2448 217.544 44.4987 217.609 44.7461C217.74 45.1758 217.831 45.5208 217.883 45.7812C217.935 46.0417 217.961 46.2305 217.961 46.3477C217.961 46.9466 217.902 47.5846 217.785 48.2617C217.668 48.9388 217.492 49.6615 217.258 50.4297C217.036 51.0938 216.822 51.7578 216.613 52.4219C216.405 53.0729 216.19 53.724 215.969 54.375C215.878 54.5443 215.773 54.7526 215.656 55C215.552 55.2474 215.435 55.5339 215.305 55.8594C215.07 56.5495 214.855 57.168 214.66 57.7148C214.465 58.2487 214.296 58.7109 214.152 59.1016C213.892 59.7005 213.664 60.2734 213.469 60.8203C213.286 61.3542 213.13 61.862 213 62.3438C212.831 62.7344 212.635 63.2422 212.414 63.8672C212.206 64.4922 211.984 65.2148 211.75 66.0352C211.711 66.2435 211.607 66.3867 211.438 66.4648C211.281 66.556 211.125 66.6471 210.969 66.7383C210.76 66.9596 210.539 67.1745 210.305 67.3828C210.083 67.6042 209.816 67.7344 209.504 67.7734C209.27 67.6172 209.094 67.4805 208.977 67.3633C208.859 67.2461 208.801 67.1484 208.801 67.0703C208.801 66.9271 208.82 66.6602 208.859 66.2695C208.911 65.8919 209.009 65.4232 209.152 64.8633C209.283 64.2513 209.393 63.7565 209.484 63.3789C209.576 63.0013 209.647 62.7279 209.699 62.5586ZM226.086 40.5273C226.19 40.4362 226.333 40.319 226.516 40.1758C226.698 40.0195 226.887 39.8372 227.082 39.6289C227.642 38.9779 228.234 38.4896 228.859 38.1641C229.484 37.8385 230.155 37.6758 230.871 37.6758C231.132 37.6758 231.444 37.7799 231.809 37.9883C232.186 38.1836 232.596 38.457 233.039 38.8086C233.716 39.3685 234.263 40.0065 234.68 40.7227C235.096 41.4258 235.383 42.2201 235.539 43.1055C235.591 43.4701 235.637 44.0755 235.676 44.9219C235.728 45.7552 235.754 46.8359 235.754 48.1641C235.754 48.776 235.656 49.6549 235.461 50.8008C235.266 51.9466 234.966 53.3529 234.562 55.0195C234.484 55.1888 234.4 55.3906 234.309 55.625C234.217 55.8464 234.113 56.1263 233.996 56.4648C233.983 56.6732 233.924 56.9076 233.82 57.168C233.716 57.4154 233.599 57.6888 233.469 57.9883C233.039 58.9518 232.661 59.7526 232.336 60.3906C232.01 61.0156 231.737 61.4779 231.516 61.7773C231.099 62.4284 230.637 63.0078 230.129 63.5156C229.634 64.0234 229.094 64.4336 228.508 64.7461C228.182 64.9284 227.902 65.0651 227.668 65.1562C227.434 65.2604 227.251 65.3125 227.121 65.3125C227.056 65.3125 226.952 65.306 226.809 65.293C226.665 65.2799 226.477 65.2734 226.242 65.2734C226.06 65.2604 225.904 65.2539 225.773 65.2539C225.643 65.2669 225.507 65.2734 225.363 65.2734C225.285 65.2734 225.181 65.2539 225.051 65.2148C224.934 65.1888 224.79 65.1237 224.621 65.0195C224.022 64.7331 223.514 64.4206 223.098 64.082C222.694 63.7305 222.362 63.3854 222.102 63.0469C221.919 62.7604 221.737 62.3698 221.555 61.875C221.385 61.3672 221.21 60.7682 221.027 60.0781C220.858 59.4271 220.747 58.8281 220.695 58.2812C220.643 57.7214 220.65 57.2201 220.715 56.7773C220.65 56.6211 220.598 56.4974 220.559 56.4062C220.533 56.3021 220.52 56.2109 220.52 56.1328C220.559 55.7943 220.591 55.5078 220.617 55.2734C220.643 55.1562 220.656 54.9479 220.656 54.6484C220.669 54.3359 220.676 53.9258 220.676 53.418C220.676 52.4805 220.76 51.5169 220.93 50.5273C221.099 49.5247 221.34 48.5091 221.652 47.4805C221.73 47.2461 221.822 46.9401 221.926 46.5625C222.043 46.1719 222.167 45.7161 222.297 45.1953C222.427 44.9349 222.564 44.5898 222.707 44.1602C222.863 43.7174 223.026 43.2031 223.195 42.6172C223.195 42.487 223.234 42.3112 223.312 42.0898C223.404 41.8685 223.514 41.5885 223.645 41.25C223.762 40.9896 223.872 40.7292 223.977 40.4688C224.094 40.1953 224.224 39.9219 224.367 39.6484C224.523 39.375 224.712 39.1667 224.934 39.0234C225.155 38.8672 225.428 38.7891 225.754 38.7891C225.936 38.7891 226.066 38.8216 226.145 38.8867C226.236 38.9518 226.281 39.043 226.281 39.1602C226.203 39.6029 226.118 40.0195 226.027 40.4102L226.086 40.5273ZM226.691 61.7773C227.316 61.7773 227.928 61.5169 228.527 60.9961C229.139 60.4622 229.738 59.6549 230.324 58.5742C230.559 58.1576 230.852 57.5586 231.203 56.7773C231.568 55.9961 231.997 55.0195 232.492 53.8477C232.596 53.5482 232.74 52.8646 232.922 51.7969C233.104 50.7161 233.195 49.9674 233.195 49.5508C233.195 47.194 232.811 45.4297 232.043 44.2578C231.275 43.0729 230.148 42.4805 228.664 42.4805C228.378 42.4805 228.046 42.5651 227.668 42.7344C227.303 42.9036 226.893 43.1576 226.438 43.4961C225.956 43.8216 225.591 44.1341 225.344 44.4336C225.109 44.7201 224.992 44.9935 224.992 45.2539C225.044 45.5143 225.09 45.7357 225.129 45.918C225.129 46.0091 225.077 46.2565 224.973 46.6602C224.868 47.0508 224.732 47.5911 224.562 48.2812C224.432 48.776 224.341 49.2188 224.289 49.6094C224.237 50 224.217 50.3451 224.23 50.6445C224.257 51.3346 224.289 52.0182 224.328 52.6953C224.328 52.8646 224.289 53.1185 224.211 53.457C224.133 53.7826 224.094 54.0299 224.094 54.1992C224.172 54.5247 224.25 54.8438 224.328 55.1562C224.341 55.2344 224.348 55.3581 224.348 55.5273C224.361 55.6836 224.367 55.8789 224.367 56.1133C224.367 56.6341 224.406 57.1745 224.484 57.7344C224.576 58.2943 224.719 58.8672 224.914 59.4531C225.135 60.2474 225.396 60.8333 225.695 61.2109C226.008 61.5885 226.34 61.7773 226.691 61.7773ZM244.094 40.5273C244.198 40.4362 244.341 40.319 244.523 40.1758C244.706 40.0195 244.895 39.8372 245.09 39.6289C245.65 38.9779 246.242 38.4896 246.867 38.1641C247.492 37.8385 248.163 37.6758 248.879 37.6758C249.139 37.6758 249.452 37.7799 249.816 37.9883C250.194 38.1836 250.604 38.457 251.047 38.8086C251.724 39.3685 252.271 40.0065 252.688 40.7227C253.104 41.4258 253.391 42.2201 253.547 43.1055C253.599 43.4701 253.645 44.0755 253.684 44.9219C253.736 45.7552 253.762 46.8359 253.762 48.1641C253.762 48.776 253.664 49.6549 253.469 50.8008C253.273 51.9466 252.974 53.3529 252.57 55.0195C252.492 55.1888 252.408 55.3906 252.316 55.625C252.225 55.8464 252.121 56.1263 252.004 56.4648C251.991 56.6732 251.932 56.9076 251.828 57.168C251.724 57.4154 251.607 57.6888 251.477 57.9883C251.047 58.9518 250.669 59.7526 250.344 60.3906C250.018 61.0156 249.745 61.4779 249.523 61.7773C249.107 62.4284 248.645 63.0078 248.137 63.5156C247.642 64.0234 247.102 64.4336 246.516 64.7461C246.19 64.9284 245.91 65.0651 245.676 65.1562C245.441 65.2604 245.259 65.3125 245.129 65.3125C245.064 65.3125 244.96 65.306 244.816 65.293C244.673 65.2799 244.484 65.2734 244.25 65.2734C244.068 65.2604 243.911 65.2539 243.781 65.2539C243.651 65.2669 243.514 65.2734 243.371 65.2734C243.293 65.2734 243.189 65.2539 243.059 65.2148C242.941 65.1888 242.798 65.1237 242.629 65.0195C242.03 64.7331 241.522 64.4206 241.105 64.082C240.702 63.7305 240.37 63.3854 240.109 63.0469C239.927 62.7604 239.745 62.3698 239.562 61.875C239.393 61.3672 239.217 60.7682 239.035 60.0781C238.866 59.4271 238.755 58.8281 238.703 58.2812C238.651 57.7214 238.658 57.2201 238.723 56.7773C238.658 56.6211 238.605 56.4974 238.566 56.4062C238.54 56.3021 238.527 56.2109 238.527 56.1328C238.566 55.7943 238.599 55.5078 238.625 55.2734C238.651 55.1562 238.664 54.9479 238.664 54.6484C238.677 54.3359 238.684 53.9258 238.684 53.418C238.684 52.4805 238.768 51.5169 238.938 50.5273C239.107 49.5247 239.348 48.5091 239.66 47.4805C239.738 47.2461 239.829 46.9401 239.934 46.5625C240.051 46.1719 240.174 45.7161 240.305 45.1953C240.435 44.9349 240.572 44.5898 240.715 44.1602C240.871 43.7174 241.034 43.2031 241.203 42.6172C241.203 42.487 241.242 42.3112 241.32 42.0898C241.411 41.8685 241.522 41.5885 241.652 41.25C241.77 40.9896 241.88 40.7292 241.984 40.4688C242.102 40.1953 242.232 39.9219 242.375 39.6484C242.531 39.375 242.72 39.1667 242.941 39.0234C243.163 38.8672 243.436 38.7891 243.762 38.7891C243.944 38.7891 244.074 38.8216 244.152 38.8867C244.243 38.9518 244.289 39.043 244.289 39.1602C244.211 39.6029 244.126 40.0195 244.035 40.4102L244.094 40.5273ZM244.699 61.7773C245.324 61.7773 245.936 61.5169 246.535 60.9961C247.147 60.4622 247.746 59.6549 248.332 58.5742C248.566 58.1576 248.859 57.5586 249.211 56.7773C249.576 55.9961 250.005 55.0195 250.5 53.8477C250.604 53.5482 250.747 52.8646 250.93 51.7969C251.112 50.7161 251.203 49.9674 251.203 49.5508C251.203 47.194 250.819 45.4297 250.051 44.2578C249.283 43.0729 248.156 42.4805 246.672 42.4805C246.385 42.4805 246.053 42.5651 245.676 42.7344C245.311 42.9036 244.901 43.1576 244.445 43.4961C243.964 43.8216 243.599 44.1341 243.352 44.4336C243.117 44.7201 243 44.9935 243 45.2539C243.052 45.5143 243.098 45.7357 243.137 45.918C243.137 46.0091 243.085 46.2565 242.98 46.6602C242.876 47.0508 242.74 47.5911 242.57 48.2812C242.44 48.776 242.349 49.2188 242.297 49.6094C242.245 50 242.225 50.3451 242.238 50.6445C242.264 51.3346 242.297 52.0182 242.336 52.6953C242.336 52.8646 242.297 53.1185 242.219 53.457C242.141 53.7826 242.102 54.0299 242.102 54.1992C242.18 54.5247 242.258 54.8438 242.336 55.1562C242.349 55.2344 242.355 55.3581 242.355 55.5273C242.368 55.6836 242.375 55.8789 242.375 56.1133C242.375 56.6341 242.414 57.1745 242.492 57.7344C242.583 58.2943 242.727 58.8672 242.922 59.4531C243.143 60.2474 243.404 60.8333 243.703 61.2109C244.016 61.5885 244.348 61.7773 244.699 61.7773Z" fill="white"/>
<path d="M167.672 98.128C165.069 98.128 163.645 96.96 163.4 94.624L164.92 94.416C165.048 95.216 165.336 95.8027 165.784 96.176C166.243 96.5493 166.904 96.736 167.768 96.736C168.483 96.736 169.043 96.5813 169.448 96.272C169.864 95.952 170.072 95.5147 170.072 94.96C170.072 94.4373 169.875 94.0587 169.48 93.824C169.085 93.5787 168.472 93.3547 167.64 93.152C166.915 92.9813 166.285 92.7787 165.752 92.544C165.229 92.3093 164.824 91.984 164.536 91.568C164.248 91.1413 164.104 90.5653 164.104 89.84C164.104 89.1893 164.269 88.6133 164.6 88.112C164.931 87.6 165.384 87.2 165.96 86.912C166.536 86.624 167.192 86.48 167.928 86.48C168.952 86.48 169.784 86.752 170.424 87.296C171.075 87.84 171.459 88.592 171.576 89.552L170.152 89.792C169.907 88.512 169.149 87.872 167.88 87.872C167.229 87.872 166.707 88.048 166.312 88.4C165.917 88.7413 165.72 89.1947 165.72 89.76C165.72 90.3467 165.923 90.784 166.328 91.072C166.733 91.3493 167.379 91.584 168.264 91.776C168.968 91.936 169.576 92.128 170.088 92.352C170.6 92.576 170.995 92.8853 171.272 93.28C171.549 93.6747 171.688 94.2133 171.688 94.896C171.688 95.536 171.517 96.1013 171.176 96.592C170.835 97.072 170.36 97.4507 169.752 97.728C169.155 97.9947 168.461 98.128 167.672 98.128ZM175.803 98.144C174.96 98.144 174.315 97.856 173.867 97.28C173.43 96.6933 173.216 95.888 173.227 94.864L173.275 89.984H174.795L174.747 94.704C174.747 95.3333 174.859 95.824 175.083 96.176C175.318 96.528 175.686 96.704 176.187 96.704C176.688 96.704 177.131 96.5013 177.515 96.096C177.91 95.6907 178.219 94.9973 178.443 94.016C178.678 93.0347 178.795 91.6907 178.795 89.984H180.267V98H178.731L178.827 95.776C178.518 96.5653 178.096 97.1573 177.563 97.552C177.04 97.9467 176.454 98.144 175.803 98.144ZM186.014 98.144C184.82 98.144 183.881 97.792 183.198 97.088C182.516 96.384 182.174 95.4027 182.174 94.144C182.174 93.2907 182.34 92.544 182.67 91.904C183.012 91.2533 183.486 90.752 184.094 90.4C184.702 90.0373 185.406 89.856 186.206 89.856C187.54 89.856 188.51 90.384 189.118 91.44L187.998 92.288C187.604 91.584 187.001 91.232 186.19 91.232C185.465 91.232 184.878 91.4987 184.43 92.032C183.982 92.5547 183.758 93.2533 183.758 94.128C183.758 94.9813 183.956 95.632 184.35 96.08C184.756 96.528 185.337 96.752 186.094 96.752C186.489 96.752 186.852 96.6667 187.182 96.496C187.524 96.3253 187.806 96.0533 188.03 95.68L189.118 96.544C188.777 97.0987 188.34 97.504 187.806 97.76C187.284 98.016 186.686 98.144 186.014 98.144ZM193.546 98.144C192.351 98.144 191.412 97.792 190.73 97.088C190.047 96.384 189.706 95.4027 189.706 94.144C189.706 93.2907 189.871 92.544 190.202 91.904C190.543 91.2533 191.018 90.752 191.626 90.4C192.234 90.0373 192.938 89.856 193.738 89.856C195.071 89.856 196.042 90.384 196.65 91.44L195.53 92.288C195.135 91.584 194.532 91.232 193.722 91.232C192.996 91.232 192.41 91.4987 191.962 92.032C191.514 92.5547 191.289 93.2533 191.289 94.128C191.289 94.9813 191.487 95.632 191.882 96.08C192.287 96.528 192.868 96.752 193.626 96.752C194.02 96.752 194.383 96.6667 194.714 96.496C195.055 96.3253 195.338 96.0533 195.562 95.68L196.65 96.544C196.308 97.0987 195.871 97.504 195.338 97.76C194.815 98.016 194.218 98.144 193.546 98.144ZM201.301 98.144C200.042 98.144 199.05 97.7867 198.325 97.072C197.599 96.3573 197.237 95.3707 197.237 94.112C197.237 93.28 197.402 92.544 197.733 91.904C198.074 91.264 198.538 90.7627 199.125 90.4C199.711 90.0373 200.378 89.856 201.125 89.856C202.277 89.856 203.151 90.256 203.749 91.056C204.346 91.8453 204.554 92.992 204.373 94.496H198.789C198.821 95.2213 199.061 95.7867 199.509 96.192C199.967 96.5867 200.602 96.784 201.413 96.784C201.807 96.784 202.186 96.6987 202.549 96.528C202.922 96.3467 203.242 96.08 203.509 95.728L204.437 96.624C204.063 97.1147 203.621 97.4933 203.109 97.76C202.597 98.016 201.994 98.144 201.301 98.144ZM201.141 91.04C200.49 91.04 199.962 91.2587 199.557 91.696C199.151 92.1333 198.906 92.6827 198.821 93.344H203.045C203.077 92.5333 202.911 91.9467 202.549 91.584C202.197 91.2213 201.727 91.04 201.141 91.04ZM208.902 98.144C207.856 98.144 207.051 97.936 206.486 97.52C205.92 97.104 205.595 96.5173 205.51 95.76L206.822 95.44C206.896 95.9307 207.099 96.2987 207.43 96.544C207.76 96.7893 208.251 96.912 208.902 96.912C209.424 96.912 209.824 96.816 210.102 96.624C210.379 96.4213 210.518 96.1547 210.518 95.824C210.518 95.504 210.368 95.2693 210.07 95.12C209.782 94.96 209.334 94.8213 208.726 94.704C208.16 94.5973 207.67 94.4587 207.254 94.288C206.848 94.1067 206.534 93.8667 206.31 93.568C206.086 93.2587 205.974 92.8533 205.974 92.352C205.974 91.872 206.102 91.4453 206.358 91.072C206.624 90.6987 206.982 90.4053 207.43 90.192C207.888 89.968 208.411 89.856 208.998 89.856C209.787 89.856 210.432 90.048 210.934 90.432C211.446 90.8053 211.75 91.3013 211.846 91.92L210.582 92.256C210.411 91.4773 209.872 91.088 208.966 91.088C208.496 91.088 208.128 91.2 207.862 91.424C207.595 91.6373 207.462 91.9147 207.462 92.256C207.462 92.5547 207.59 92.8 207.846 92.992C208.102 93.1733 208.56 93.328 209.222 93.456C209.787 93.5733 210.278 93.7173 210.694 93.888C211.11 94.048 211.43 94.272 211.654 94.56C211.888 94.8373 212.011 95.2213 212.022 95.712C212.022 96.1813 211.888 96.6027 211.622 96.976C211.366 97.3387 211.003 97.6267 210.534 97.84C210.064 98.0427 209.52 98.144 208.902 98.144ZM216.277 98.144C215.231 98.144 214.426 97.936 213.861 97.52C213.295 97.104 212.97 96.5173 212.885 95.76L214.197 95.44C214.271 95.9307 214.474 96.2987 214.805 96.544C215.135 96.7893 215.626 96.912 216.277 96.912C216.799 96.912 217.199 96.816 217.477 96.624C217.754 96.4213 217.893 96.1547 217.893 95.824C217.893 95.504 217.743 95.2693 217.445 95.12C217.157 94.96 216.709 94.8213 216.101 94.704C215.535 94.5973 215.045 94.4587 214.629 94.288C214.223 94.1067 213.909 93.8667 213.685 93.568C213.461 93.2587 213.349 92.8533 213.349 92.352C213.349 91.872 213.477 91.4453 213.733 91.072C213.999 90.6987 214.357 90.4053 214.805 90.192C215.263 89.968 215.786 89.856 216.373 89.856C217.162 89.856 217.807 90.048 218.309 90.432C218.821 90.8053 219.125 91.3013 219.221 91.92L217.957 92.256C217.786 91.4773 217.247 91.088 216.341 91.088C215.871 91.088 215.503 91.2 215.237 91.424C214.97 91.6373 214.837 91.9147 214.837 92.256C214.837 92.5547 214.965 92.8 215.221 92.992C215.477 93.1733 215.935 93.328 216.597 93.456C217.162 93.5733 217.653 93.7173 218.069 93.888C218.485 94.048 218.805 94.272 219.029 94.56C219.263 94.8373 219.386 95.2213 219.397 95.712C219.397 96.1813 219.263 96.6027 218.997 96.976C218.741 97.3387 218.378 97.6267 217.909 97.84C217.439 98.0427 216.895 98.144 216.277 98.144ZM221.332 98V91.28H219.764V89.984H221.332V89.392C221.332 88.6987 221.465 88.1013 221.732 87.6C221.998 87.088 222.366 86.6933 222.836 86.416C223.316 86.1387 223.865 86 224.484 86C225.241 86 225.844 86.192 226.292 86.576C226.74 86.9493 227.001 87.488 227.076 88.192L225.78 88.352C225.694 87.648 225.252 87.296 224.452 87.296C223.95 87.296 223.556 87.4667 223.268 87.808C222.98 88.1387 222.836 88.6187 222.836 89.248V89.984H225.412V91.28H222.868V98H221.332ZM228.694 98.144C227.851 98.144 227.206 97.856 226.758 97.28C226.32 96.6933 226.107 95.888 226.118 94.864L226.166 89.984H227.686L227.638 94.704C227.638 95.3333 227.75 95.824 227.974 96.176C228.208 96.528 228.576 96.704 229.078 96.704C229.579 96.704 230.022 96.5013 230.406 96.096C230.8 95.6907 231.11 94.9973 231.334 94.016C231.568 93.0347 231.686 91.6907 231.686 89.984H233.158V98H231.622L231.718 95.776C231.408 96.5653 230.987 97.1573 230.454 97.552C229.931 97.9467 229.344 98.144 228.694 98.144ZM237.561 98.144C236.846 98.144 236.308 97.952 235.945 97.568C235.593 97.1733 235.417 96.64 235.417 95.968V86.16H236.953V95.808C236.953 96.4587 237.246 96.784 237.833 96.784C237.982 96.784 238.121 96.7627 238.249 96.72C238.388 96.6773 238.505 96.6293 238.601 96.576L238.985 97.712C238.836 97.84 238.628 97.9413 238.361 98.016C238.105 98.1013 237.838 98.144 237.561 98.144ZM241.936 98.144C241.221 98.144 240.683 97.952 240.32 97.568C239.968 97.1733 239.792 96.64 239.792 95.968V86.16H241.328V95.808C241.328 96.4587 241.621 96.784 242.208 96.784C242.357 96.784 242.496 96.7627 242.624 96.72C242.763 96.6773 242.88 96.6293 242.976 96.576L243.36 97.712C243.211 97.84 243.003 97.9413 242.736 98.016C242.48 98.1013 242.213 98.144 241.936 98.144ZM246.903 101.36C246.444 101.36 245.959 101.312 245.447 101.216C244.946 101.12 244.524 100.971 244.183 100.768L244.567 99.424C244.93 99.6053 245.314 99.744 245.719 99.84C246.124 99.936 246.54 99.984 246.967 99.984C247.948 99.984 248.647 99.744 249.063 99.264C249.479 98.7947 249.703 98.0373 249.735 96.992L249.799 95.488C249.49 96.3093 249.063 96.9227 248.519 97.328C247.975 97.7333 247.356 97.936 246.663 97.936C245.81 97.936 245.159 97.648 244.711 97.072C244.274 96.496 244.06 95.6907 244.071 94.656L244.119 89.984H245.639L245.591 94.512C245.591 95.1413 245.703 95.632 245.927 95.984C246.162 96.336 246.535 96.512 247.047 96.512C247.57 96.512 248.028 96.3093 248.423 95.904C248.828 95.4987 249.143 94.8213 249.367 93.872C249.591 92.9227 249.708 91.6267 249.719 89.984H251.191V96.784C251.191 98.32 250.823 99.4667 250.087 100.224C249.362 100.981 248.3 101.36 246.903 101.36ZM258.926 98H257.342V86.64H261.166C262.552 86.64 263.619 86.928 264.366 87.504C265.123 88.08 265.502 88.9227 265.502 90.032C265.502 91.1307 265.107 91.9947 264.318 92.624C263.528 93.2533 262.339 93.568 260.75 93.568H258.926V98ZM261.054 87.968H258.926V92.224H260.83C261.918 92.224 262.696 92.0427 263.166 91.68C263.646 91.3173 263.886 90.7733 263.886 90.048C263.886 89.3227 263.656 88.7947 263.198 88.464C262.739 88.1333 262.024 87.968 261.054 87.968ZM271.811 91.456C271.609 91.392 271.363 91.36 271.075 91.36C270.478 91.36 269.987 91.5893 269.603 92.048C269.23 92.496 268.953 93.2107 268.771 94.192C268.601 95.1627 268.515 96.432 268.515 98H266.995V92.848L266.979 89.984H268.515L268.419 92.544C268.686 91.5733 269.07 90.8853 269.571 90.48C270.083 90.064 270.627 89.856 271.203 89.856C271.374 89.856 271.529 89.8667 271.667 89.888C271.817 89.8987 271.945 89.9253 272.051 89.968L271.811 91.456ZM276.424 89.856C277.565 89.856 278.467 90.2133 279.128 90.928C279.789 91.6427 280.12 92.608 280.12 93.824C280.12 94.6453 279.955 95.3813 279.624 96.032C279.293 96.6827 278.829 97.2 278.232 97.584C277.645 97.9573 276.957 98.144 276.168 98.144C274.995 98.144 274.077 97.7867 273.416 97.072C272.765 96.3573 272.44 95.3867 272.44 94.16C272.44 93.3387 272.6 92.6027 272.92 91.952C273.251 91.3013 273.715 90.7893 274.312 90.416C274.909 90.0427 275.613 89.856 276.424 89.856ZM276.184 96.768C276.888 96.768 277.453 96.5013 277.88 95.968C278.317 95.424 278.536 94.7093 278.536 93.824C278.536 92.992 278.344 92.352 277.96 91.904C277.587 91.4453 277.069 91.216 276.408 91.216C275.683 91.216 275.101 91.488 274.664 92.032C274.227 92.576 274.008 93.2853 274.008 94.16C274.008 94.992 274.2 95.6373 274.584 96.096C274.968 96.544 275.501 96.768 276.184 96.768ZM280.523 101.312C280.214 101.312 279.915 101.285 279.627 101.232C279.328 101.189 279.078 101.115 278.875 101.008L279.179 99.728C279.574 99.8987 280.006 99.984 280.475 99.984C281.094 99.984 281.536 99.7973 281.803 99.424C282.08 99.0613 282.219 98.5493 282.219 97.888V89.984H283.739V97.936C283.739 99.0133 283.446 99.8453 282.859 100.432C282.272 101.019 281.494 101.312 280.523 101.312ZM282.987 88.432C282.678 88.432 282.432 88.336 282.251 88.144C282.07 87.9413 281.979 87.7067 281.979 87.44C281.979 87.1733 282.07 86.944 282.251 86.752C282.432 86.5493 282.678 86.448 282.987 86.448C283.296 86.448 283.542 86.5493 283.723 86.752C283.904 86.944 283.995 87.1733 283.995 87.44C283.995 87.7067 283.904 87.9413 283.723 88.144C283.542 88.336 283.296 88.432 282.987 88.432ZM289.707 98.144C288.448 98.144 287.456 97.7867 286.731 97.072C286.006 96.3573 285.643 95.3707 285.643 94.112C285.643 93.28 285.808 92.544 286.139 91.904C286.48 91.264 286.944 90.7627 287.531 90.4C288.118 90.0373 288.784 89.856 289.531 89.856C290.683 89.856 291.558 90.256 292.155 91.056C292.752 91.8453 292.96 92.992 292.779 94.496H287.195C287.227 95.2213 287.467 95.7867 287.915 96.192C288.374 96.5867 289.008 96.784 289.819 96.784C290.214 96.784 290.592 96.6987 290.955 96.528C291.328 96.3467 291.648 96.08 291.915 95.728L292.843 96.624C292.47 97.1147 292.027 97.4933 291.515 97.76C291.003 98.016 290.4 98.144 289.707 98.144ZM289.547 91.04C288.896 91.04 288.368 91.2587 287.963 91.696C287.558 92.1333 287.312 92.6827 287.227 93.344H291.451C291.483 92.5333 291.318 91.9467 290.955 91.584C290.603 91.2213 290.134 91.04 289.547 91.04ZM298.108 98.144C296.913 98.144 295.975 97.792 295.292 97.088C294.609 96.384 294.268 95.4027 294.268 94.144C294.268 93.2907 294.433 92.544 294.764 91.904C295.105 91.2533 295.58 90.752 296.188 90.4C296.796 90.0373 297.5 89.856 298.3 89.856C299.633 89.856 300.604 90.384 301.212 91.44L300.092 92.288C299.697 91.584 299.095 91.232 298.284 91.232C297.559 91.232 296.972 91.4987 296.524 92.032C296.076 92.5547 295.852 93.2533 295.852 94.128C295.852 94.9813 296.049 95.632 296.444 96.08C296.849 96.528 297.431 96.752 298.188 96.752C298.583 96.752 298.945 96.6667 299.276 96.496C299.617 96.3253 299.9 96.0533 300.124 95.68L301.212 96.544C300.871 97.0987 300.433 97.504 299.9 97.76C299.377 98.016 298.78 98.144 298.108 98.144ZM305.774 98.144C304.825 98.144 304.099 97.8933 303.598 97.392C303.107 96.88 302.867 96.2027 302.878 95.36L302.942 91.28H301.55V89.984H302.958L302.974 88.32H304.51L304.478 89.984H307.198V91.28H304.462L304.414 95.232C304.414 95.7013 304.537 96.08 304.782 96.368C305.027 96.6453 305.406 96.784 305.918 96.784C306.163 96.784 306.393 96.7573 306.606 96.704C306.819 96.64 307.043 96.5173 307.278 96.336L307.742 97.536C307.507 97.7387 307.214 97.8933 306.862 98C306.521 98.096 306.158 98.144 305.774 98.144ZM321.888 95.808C321.461 96.5653 320.869 97.1467 320.112 97.552C319.354 97.9467 318.496 98.144 317.536 98.144C316.426 98.144 315.466 97.92 314.656 97.472C313.856 97.0133 313.242 96.368 312.816 95.536C312.389 94.6933 312.176 93.6907 312.176 92.528C312.176 91.3333 312.41 90.2827 312.88 89.376C313.36 88.4693 314.021 87.76 314.864 87.248C315.706 86.736 316.688 86.48 317.808 86.48C319.664 86.48 321.029 87.2107 321.904 88.672L320.656 89.6C320.346 89.0453 319.946 88.6347 319.456 88.368C318.965 88.0907 318.405 87.952 317.776 87.952C316.997 87.952 316.309 88.144 315.712 88.528C315.125 88.912 314.661 89.4507 314.32 90.144C313.989 90.8267 313.824 91.616 313.824 92.512C313.824 93.824 314.149 94.8427 314.8 95.568C315.461 96.2933 316.378 96.656 317.552 96.656C318.234 96.656 318.842 96.5067 319.376 96.208C319.909 95.9093 320.341 95.4613 320.672 94.864L321.888 95.808ZM326.549 89.856C327.69 89.856 328.592 90.2133 329.253 90.928C329.914 91.6427 330.245 92.608 330.245 93.824C330.245 94.6453 330.08 95.3813 329.749 96.032C329.418 96.6827 328.954 97.2 328.357 97.584C327.77 97.9573 327.082 98.144 326.293 98.144C325.12 98.144 324.202 97.7867 323.541 97.072C322.89 96.3573 322.565 95.3867 322.565 94.16C322.565 93.3387 322.725 92.6027 323.045 91.952C323.376 91.3013 323.84 90.7893 324.437 90.416C325.034 90.0427 325.738 89.856 326.549 89.856ZM326.309 96.768C327.013 96.768 327.578 96.5013 328.005 95.968C328.442 95.424 328.661 94.7093 328.661 93.824C328.661 92.992 328.469 92.352 328.085 91.904C327.712 91.4453 327.194 91.216 326.533 91.216C325.808 91.216 325.226 91.488 324.789 92.032C324.352 92.576 324.133 93.2853 324.133 94.16C324.133 94.992 324.325 95.6373 324.709 96.096C325.093 96.544 325.626 96.768 326.309 96.768ZM332.12 98V89.984H333.656L333.56 92.336C333.869 91.4827 334.296 90.8587 334.84 90.464C335.384 90.0587 335.971 89.856 336.6 89.856C337.251 89.856 337.789 90.0427 338.216 90.416C338.653 90.7787 338.947 91.3333 339.096 92.08C339.416 91.3333 339.853 90.7787 340.408 90.416C340.973 90.0427 341.565 89.856 342.184 89.856C343.037 89.856 343.688 90.1547 344.136 90.752C344.584 91.3387 344.803 92.1867 344.792 93.296L344.76 98H343.224L343.256 93.408C343.267 92.7147 343.149 92.1867 342.904 91.824C342.669 91.4613 342.296 91.28 341.784 91.28C341.453 91.28 341.133 91.3867 340.824 91.6C340.515 91.8133 340.237 92.1707 339.992 92.672C339.757 93.1733 339.565 93.8613 339.416 94.736C339.277 95.6 339.203 96.688 339.192 98H337.688V93.408C337.688 92.7147 337.571 92.1867 337.336 91.824C337.112 91.4613 336.749 91.28 336.248 91.28C335.907 91.28 335.581 91.3867 335.272 91.6C334.963 91.8133 334.685 92.1707 334.44 92.672C334.195 93.1733 334.003 93.8613 333.864 94.736C333.725 95.6 333.651 96.688 333.64 98H332.12ZM346.933 101.2V89.984H348.485L348.421 91.648C348.719 91.0827 349.109 90.6453 349.589 90.336C350.069 90.016 350.623 89.856 351.253 89.856C351.946 89.856 352.527 90.016 352.997 90.336C353.477 90.656 353.839 91.0987 354.085 91.664C354.33 92.2293 354.453 92.88 354.453 93.616C354.453 94.512 354.282 95.3013 353.941 95.984C353.61 96.656 353.146 97.184 352.549 97.568C351.962 97.952 351.29 98.144 350.533 98.144C350.085 98.144 349.679 98.0587 349.317 97.888C348.954 97.7067 348.661 97.4667 348.437 97.168L348.469 98V101.2H346.933ZM350.453 96.768C351.189 96.768 351.775 96.4853 352.213 95.92C352.661 95.3547 352.885 94.6133 352.885 93.696C352.885 92.9173 352.714 92.3093 352.373 91.872C352.031 91.4347 351.573 91.216 350.997 91.216C350.517 91.216 350.085 91.3547 349.701 91.632C349.317 91.9093 349.013 92.2933 348.789 92.784C348.565 93.2747 348.453 93.84 348.453 94.48C348.453 95.1947 348.629 95.7547 348.981 96.16C349.343 96.5653 349.834 96.768 350.453 96.768ZM358.483 98.144C357.768 98.144 357.229 97.952 356.867 97.568C356.515 97.1733 356.339 96.64 356.339 95.968V86.16H357.875V95.808C357.875 96.4587 358.168 96.784 358.755 96.784C358.904 96.784 359.043 96.7627 359.171 96.72C359.309 96.6773 359.427 96.6293 359.523 96.576L359.907 97.712C359.757 97.84 359.549 97.9413 359.283 98.016C359.027 98.1013 358.76 98.144 358.483 98.144ZM364.426 98.144C363.167 98.144 362.175 97.7867 361.45 97.072C360.724 96.3573 360.362 95.3707 360.362 94.112C360.362 93.28 360.527 92.544 360.858 91.904C361.199 91.264 361.663 90.7627 362.25 90.4C362.836 90.0373 363.503 89.856 364.25 89.856C365.402 89.856 366.276 90.256 366.874 91.056C367.471 91.8453 367.679 92.992 367.498 94.496H361.914C361.946 95.2213 362.186 95.7867 362.634 96.192C363.092 96.5867 363.727 96.784 364.538 96.784C364.932 96.784 365.311 96.6987 365.674 96.528C366.047 96.3467 366.367 96.08 366.634 95.728L367.562 96.624C367.188 97.1147 366.746 97.4933 366.234 97.76C365.722 98.016 365.119 98.144 364.426 98.144ZM364.266 91.04C363.615 91.04 363.087 91.2587 362.682 91.696C362.276 92.1333 362.031 92.6827 361.946 93.344H366.17C366.202 92.5333 366.036 91.9467 365.674 91.584C365.322 91.2213 364.852 91.04 364.266 91.04ZM372.493 98.144C371.543 98.144 370.818 97.8933 370.317 97.392C369.826 96.88 369.586 96.2027 369.597 95.36L369.661 91.28H368.269V89.984H369.677L369.693 88.32H371.229L371.197 89.984H373.917V91.28H371.181L371.133 95.232C371.133 95.7013 371.255 96.08 371.501 96.368C371.746 96.6453 372.125 96.784 372.637 96.784C372.882 96.784 373.111 96.7573 373.325 96.704C373.538 96.64 373.762 96.5173 373.997 96.336L374.461 97.536C374.226 97.7387 373.933 97.8933 373.581 98C373.239 98.096 372.877 98.144 372.493 98.144ZM378.973 98.144C377.714 98.144 376.722 97.7867 375.997 97.072C375.271 96.3573 374.909 95.3707 374.909 94.112C374.909 93.28 375.074 92.544 375.405 91.904C375.746 91.264 376.21 90.7627 376.797 90.4C377.383 90.0373 378.05 89.856 378.797 89.856C379.949 89.856 380.823 90.256 381.421 91.056C382.018 91.8453 382.226 92.992 382.045 94.496H376.461C376.493 95.2213 376.733 95.7867 377.181 96.192C377.639 96.5867 378.274 96.784 379.085 96.784C379.479 96.784 379.858 96.6987 380.221 96.528C380.594 96.3467 380.914 96.08 381.181 95.728L382.109 96.624C381.735 97.1147 381.293 97.4933 380.781 97.76C380.269 98.016 379.666 98.144 378.973 98.144ZM378.813 91.04C378.162 91.04 377.634 91.2587 377.229 91.696C376.823 92.1333 376.578 92.6827 376.493 93.344H380.717C380.749 92.5333 380.583 91.9467 380.221 91.584C379.869 91.2213 379.399 91.04 378.813 91.04ZM391.054 86.16V98H389.486L389.55 96.352C389.251 96.9067 388.862 97.344 388.382 97.664C387.902 97.984 387.352 98.144 386.734 98.144C386.04 98.144 385.454 97.984 384.974 97.664C384.504 97.3333 384.147 96.8853 383.902 96.32C383.656 95.7547 383.534 95.104 383.534 94.368C383.534 93.4827 383.699 92.6987 384.03 92.016C384.371 91.3333 384.835 90.8053 385.422 90.432C386.019 90.048 386.702 89.856 387.47 89.856C387.907 89.856 388.307 89.9413 388.67 90.112C389.032 90.2827 389.326 90.512 389.55 90.8L389.518 89.984V86.16H391.054ZM387.534 91.216C386.798 91.216 386.206 91.4987 385.758 92.064C385.32 92.6187 385.102 93.3547 385.102 94.272C385.102 95.0613 385.272 95.6747 385.614 96.112C385.955 96.5493 386.414 96.768 386.99 96.768C387.47 96.768 387.902 96.6293 388.286 96.352C388.67 96.0747 388.974 95.6907 389.198 95.2C389.422 94.6987 389.534 94.128 389.534 93.488C389.534 92.784 389.352 92.2293 388.99 91.824C388.638 91.4187 388.152 91.216 387.534 91.216Z" fill="white"/>
<defs>
<clipPath id="clip0_3_397">
<rect width="56" height="56" fill="white" transform="matrix(-1 0 0 1 111 32)"/>
</clipPath>
</defs>
</svg>
